HIERARCHY
ROOT Hips
{
	OFFSET -0.001795 -0.223333 0.028219
	CHANNELS 6 Xposition Yposition Zposition Zrotation Yrotation Xrotation 
	JOINT LeftUpLeg
	{
		OFFSET 0.069520 -0.091406 -0.006815
		CHANNELS 3 Zrotation Yrotation Xrotation
		JOINT LeftLeg
		{
			OFFSET 0.034277 -0.375199 -0.004496
			CHANNELS 3 Zrotation Yrotation Xrotation
			JOINT LeftFoot
			{
				OFFSET -0.013596 -0.397961 -0.043693
				CHANNELS 3 Zrotation Yrotation Xrotation
				JOINT LeftToe
				{
					OFFSET 0.026358 -0.055791 0.119288
					CHANNELS 3 Zrotation Yrotation Xrotation
					End Site
					{
						OFFSET 0.000000 0.000000 0.000000
					}
				}
			}
		}
	}
	JOINT RightUpLeg
	{
		OFFSET -0.067670 -0.090522 -0.004320
		CHANNELS 3 Zrotation Yrotation Xrotation
		JOINT RightLeg
		{
			OFFSET -0.038290 -0.382569 -0.008850
			CHANNELS 3 Zrotation Yrotation Xrotation
			JOINT RightFoot
			{
				OFFSET 0.015774 -0.398415 -0.042312
				CHANNELS 3 Zrotation Yrotation Xrotation
				JOINT RightToe
				{
					OFFSET -0.025372 -0.048144 0.123348
					CHANNELS 3 Zrotation Yrotation Xrotation
					End Site
					{
						OFFSET 0.000000 0.000000 0.000000
					}
				}
			}
		}
	}
	JOINT Spine
	{
		OFFSET -0.002533 0.108963 -0.026696
		CHANNELS 3 Zrotation Yrotation Xrotation
		JOINT Spine1
		{
			OFFSET 0.005487 0.135180 0.001092
			CHANNELS 3 Zrotation Yrotation Xrotation
			JOINT Spine2
			{
				OFFSET 0.001457 0.052922 0.025425
				CHANNELS 3 Zrotation Yrotation Xrotation
				JOINT Neck
				{
					OFFSET -0.002778 0.213870 -0.042857
					CHANNELS 3 Zrotation Yrotation Xrotation
					JOINT Head
					{
						OFFSET 0.005152 0.064970 0.051349
						CHANNELS 3 Zrotation Yrotation Xrotation
						End Site
						{
							OFFSET 0.000000 0.000000 0.000000
						}
					}
				}
				JOINT LeftShoulder
				{
					OFFSET 0.078845 0.121749 -0.034090
					CHANNELS 3 Zrotation Yrotation Xrotation
					JOINT LeftArm
					{
						OFFSET 0.090977 0.030469 -0.008868
						CHANNELS 3 Zrotation Yrotation Xrotation
						JOINT LeftForeArm
						{
							OFFSET 0.259612 -0.012772 -0.027456
							CHANNELS 3 Zrotation Yrotation Xrotation
							JOINT LeftHand
							{
								OFFSET 0.249234 0.008986 -0.001171
								CHANNELS 3 Zrotation Yrotation Xrotation
								End Site
								{
									OFFSET 0.000000 0.000000 0.000000
								}
							}
						}
					}
				}
				JOINT RightShoulder
				{
					OFFSET -0.081759 0.118833 -0.038615
					CHANNELS 3 Zrotation Yrotation Xrotation
					JOINT RightArm
					{
						OFFSET -0.096012 0.032551 -0.009143
						CHANNELS 3 Zrotation Yrotation Xrotation
						JOINT RightForeArm
						{
							OFFSET -0.253742 -0.013329 -0.021401
							CHANNELS 3 Zrotation Yrotation Xrotation
							JOINT RightHand
							{
								OFFSET -0.255298 0.007772 -0.005559
								CHANNELS 3 Zrotation Yrotation Xrotation
								End Site
								{
									OFFSET 0.000000 0.000000 0.000000
								}
							}
						}
					}
				}
			}
		}
	}
}
MOTION
Frames: 13
Frame Time: 0.050000
0.000000 0.929158 0.000000 -2.399510 12.196778 -2.633630 -1.125357 0.625253 7.590287 0.804731 -0.156984 1.832295 0.569304 0.380047 -1.254279 0.000000 0.000000 0.000000 -1.141835 1.547106 -23.139723 0.043486 0.191121 8.842294 -6.422876 -15.138653 28.249622 0.000000 0.000000 0.000000 2.227974 -0.496096 7.380622 2.329697 -1.036065 -0.995787 -4.919354 0.763517 8.546500 10.152825 -5.058015 -13.141415 0.000000 0.000000 0.000000 -16.644721 -8.777962 0.966731 -51.686701 -5.921374 -3.583293 -6.110785 -29.582281 2.188391 0.000000 0.000000 0.000000 18.029320 -1.284857 -0.302157 59.744743 0.742248 -5.938469 3.415441 27.602788 2.314155 0.000000 0.000000 0.000000 
-0.003076 0.924094 0.033796 -2.517046 11.032006 -2.039163 -0.184368 0.700371 9.912740 0.218788 -0.044732 0.619567 1.211340 1.242043 -2.113148 0.000000 0.000000 0.000000 -0.461393 1.769650 -23.584912 0.133010 0.117185 4.877031 -1.421547 -8.100304 24.174312 0.000000 0.000000 0.000000 2.544809 -0.475498 6.829484 1.988901 -0.719822 -2.902153 -5.585028 1.788030 10.225267 10.685985 -4.836712 -15.525608 0.000000 0.000000 0.000000 -13.338065 -8.174356 0.986987 -53.694104 -7.461627 -3.412457 -6.759121 -30.468030 2.376253 0.000000 0.000000 0.000000 16.760149 -1.590344 -0.281657 62.945386 -0.272615 -6.681721 1.068263 26.929572 1.801629 0.000000 0.000000 0.000000 
-0.006581 0.916984 0.069998 -2.065819 11.021649 -1.374551 -0.083948 0.763472 11.161723 0.465172 -0.106231 1.501279 1.649076 1.407417 -3.409961 0.000000 0.000000 0.000000 0.492525 1.966781 -23.521640 -1.395073 0.382779 5.047842 0.706099 -4.433916 21.833871 0.000000 0.000000 0.000000 2.513155 -0.436930 6.291910 1.828664 -0.540047 -4.315116 -5.907434 2.036084 12.194565 10.186651 -4.277448 -16.641197 0.000000 0.000000 0.000000 -13.600813 -8.128956 0.931246 -53.445219 -7.753864 -3.424471 -8.513153 -30.176959 2.836883 0.000000 0.000000 0.000000 17.390576 -2.764098 -0.793096 62.356109 -0.824148 -7.125581 2.902473 26.847045 2.249403 0.000000 0.000000 0.000000 
-0.010648 0.911191 0.109190 -2.640152 10.994513 -1.003773 0.902723 0.674992 11.989276 1.179629 -0.291148 3.593758 2.044507 1.990134 -3.874432 0.000000 0.000000 0.000000 1.559508 2.288848 -25.082832 -0.759318 0.416611 11.103597 0.538245 -3.646731 16.968148 0.000000 0.000000 0.000000 3.237914 -0.397750 5.162102 1.866674 -0.625484 -3.398909 -5.609651 1.285169 12.006903 9.413137 -3.832401 -16.772134 0.000000 0.000000 0.000000 -14.563152 -7.690923 0.778471 -53.594195 -5.839197 -4.248974 -9.093777 -31.846551 3.228730 0.000000 0.000000 0.000000 16.601355 -3.140949 -1.195329 62.812519 -0.875916 -7.097788 1.522188 26.181676 1.836227 0.000000 0.000000 0.000000 
-0.014111 0.910260 0.152405 -3.318073 11.186835 -0.531573 2.593816 0.397611 10.911556 0.771333 -0.589450 9.482896 1.761421 2.375192 -2.149089 0.000000 0.000000 0.000000 3.230479 2.640794 -25.133600 -0.982689 0.518543 15.041432 -0.070700 -4.079951 14.228929 0.000000 0.000000 0.000000 4.139444 -0.375577 4.200708 2.323447 -0.833315 -3.339664 -6.321033 0.722022 11.191308 10.576682 -5.119644 -14.494832 0.000000 0.000000 0.000000 -16.011619 -7.294164 0.463676 -52.871017 -4.434567 -4.644533 -9.782212 -31.650849 3.418117 0.000000 0.000000 0.000000 17.316763 -3.959382 -1.765000 62.502047 -2.777354 -7.995231 2.224368 27.640713 2.097749 0.000000 0.000000 0.000000 
-0.015847 0.912368 0.197948 -4.173293 9.168569 -0.891552 3.938160 0.241226 9.455031 -0.505754 -0.844575 17.807767 1.590112 5.115850 4.058806 0.000000 0.000000 0.000000 4.774083 2.913099 -23.556724 0.048889 0.322066 17.929212 0.111014 -3.030411 10.253004 0.000000 0.000000 0.000000 5.256710 -0.383220 3.750567 2.580489 -1.014984 -2.759473 -5.806606 -0.540255 10.944403 9.434143 -4.584518 -14.541352 0.000000 0.000000 0.000000 -16.959353 -5.423194 0.015891 -54.091984 -2.615227 -5.670311 -9.430713 -32.194591 3.617155 0.000000 0.000000 0.000000 17.085236 -3.157187 -1.849334 61.655110 -1.604197 -7.374184 1.838993 27.592703 1.855284 0.000000 0.000000 0.000000 
-0.016063 0.918924 0.242504 -4.888796 6.759353 -0.426321 5.144125 0.040760 5.177936 -2.499126 -0.794999 28.816675 0.883221 6.598089 11.642356 0.000000 0.000000 0.000000 6.543227 3.141865 -21.983376 -0.044112 0.465592 19.408074 0.804158 -1.311898 8.401664 0.000000 0.000000 0.000000 6.254839 -0.249725 1.884445 3.246002 -1.376875 -2.280317 -5.562683 -0.177370 10.721400 9.284127 -4.558124 -14.592150 0.000000 0.000000 0.000000 -17.095237 -5.079786 0.066391 -54.005246 -1.879014 -6.008428 -10.946053 -31.695473 4.074442 0.000000 0.000000 0.000000 15.722090 -3.296398 -2.062567 60.618880 -1.506727 -7.163398 3.418602 27.434497 2.120096 0.000000 0.000000 0.000000 
-0.014181 0.925502 0.282649 -5.313647 3.591726 -0.828021 6.972443 -0.173077 -1.187866 -6.029076 0.679782 42.728647 -0.723038 6.463887 20.400307 0.000000 0.000000 0.000000 7.922432 2.941320 -18.487977 -0.493852 0.730337 18.918284 1.951047 1.346441 7.118873 0.000000 0.000000 0.000000 7.269492 -0.280861 2.098069 3.000707 -1.265264 -2.575059 -5.035332 -0.242375 10.625966 8.670176 -4.388130 -14.332884 0.000000 0.000000 0.000000 -17.601859 -5.625865 0.758374 -54.227541 -1.747881 -6.162397 -11.406758 -31.816637 4.394267 0.000000 0.000000 0.000000 14.454099 -1.696892 -1.513886 60.115199 -0.699852 -6.743885 4.992525 28.269879 2.431693 0.000000 0.000000 0.000000 
-0.009792 0.929052 0.317725 -5.266685 1.122487 -1.995069 7.826449 -0.236138 -6.758599 -8.357247 2.691882 51.562869 0.744807 8.535212 21.807619 0.000000 0.000000 0.000000 8.408890 2.297657 -13.947803 -1.177043 0.966792 17.542608 2.754789 3.818214 5.367491 0.000000 0.000000 0.000000 7.752949 -0.481222 4.200302 2.307642 -0.945112 -3.035014 -4.261824 0.477903 10.595731 9.714561 -5.184355 -14.228879 0.000000 0.000000 0.000000 -17.440741 -6.842387 1.573495 -53.904391 -3.383000 -5.451638 -11.579971 -33.041683 4.692183 0.000000 0.000000 0.000000 14.259099 -1.543183 -1.549587 58.417562 0.657242 -5.958075 6.223074 28.568236 2.700980 0.000000 0.000000 0.000000 
-0.003195 0.933706 0.350245 -4.731189 -1.418885 -2.366382 7.898528 -0.284573 -12.274455 -8.490542 3.285678 47.058526 6.201824 15.616351 23.550998 0.000000 0.000000 0.000000 7.748951 1.573566 -10.056567 -1.651902 1.052632 15.313779 3.826211 6.604249 4.571023 0.000000 0.000000 0.000000 7.242996 -0.559900 5.394727 1.905930 -0.771934 -3.430723 -3.443950 0.513530 10.743994 9.557036 -5.175581 -14.597550 0.000000 0.000000 0.000000 -18.207039 -7.444542 2.252516 -53.060456 -5.211433 -4.666453 -11.145481 -34.239611 4.884146 0.000000 0.000000 0.000000 15.411871 -0.645372 -1.479944 56.036813 1.628516 -5.345021 6.275822 30.071300 2.759974 0.000000 0.000000 0.000000 
0.005046 0.937342 0.381771 -3.828187 -4.403964 -2.644014 7.637749 -0.285194 -16.547499 -5.775111 1.674984 30.900726 16.713764 24.830944 50.643704 0.000000 0.000000 0.000000 6.495214 1.051426 -7.465006 -2.390906 1.271852 14.810069 5.021385 9.631510 4.045698 0.000000 0.000000 0.000000 6.329059 -0.572734 6.252429 1.765100 -0.740614 -3.474108 -3.071312 1.389532 10.743967 9.721482 -5.250147 -15.209656 0.000000 0.000000 0.000000 -17.010027 -7.709459 2.625741 -53.940801 -7.051926 -3.970919 -9.694242 -36.169714 4.811477 0.000000 0.000000 0.000000 15.144491 0.026272 -1.290060 55.728380 2.836078 -4.771934 6.373030 31.038554 2.817267 0.000000 0.000000 0.000000 
0.014941 0.939184 0.413663 -3.337035 -8.436517 -3.254219 7.481254 -0.138629 -17.395815 -1.749011 0.179259 15.090273 9.983068 19.008352 37.198573 0.000000 0.000000 0.000000 5.397281 0.483549 -4.198782 -3.400959 1.461848 13.457688 6.631609 13.645829 3.652848 0.000000 0.000000 0.000000 5.825313 -0.599235 7.306498 1.066259 -0.479732 -3.189063 -2.149163 1.729055 10.843196 8.819043 -4.808230 -15.584910 0.000000 0.000000 0.000000 -16.551030 -8.047963 3.281209 -53.919353 -9.274810 -3.064214 -8.246276 -37.842824 4.783326 0.000000 0.000000 0.000000 14.303335 0.749081 -1.243682 55.667335 4.145512 -4.174806 6.552288 32.206298 2.802940 0.000000 0.000000 0.000000 
0.026254 0.938915 0.446704 -3.022909 -11.819473 -3.556066 7.982493 0.097971 -16.176174 -0.266488 -0.076381 5.906888 6.864851 15.027151 30.074863 0.000000 0.000000 0.000000 3.977840 0.046463 -1.217666 -4.139811 1.492772 11.857192 7.908275 17.175126 3.123702 0.000000 0.000000 0.000000 5.409498 -0.578515 7.717343 0.492207 -0.256166 -3.870727 -1.699496 1.152305 12.292012 8.424043 -4.872955 -15.678165 0.000000 0.000000 0.000000 -15.324624 -8.231813 3.976842 -54.862876 -11.096037 -2.448008 -3.846205 -38.711452 3.720362 0.000000 0.000000 0.000000 13.551684 2.099812 -0.982519 56.348402 4.583343 -4.166033 5.769224 33.702892 2.491605 0.000000 0.000000 0.000000 
